<svg xmlns="http://www.w3.org/2000/svg" style="background: #1c1c1c;" height="1024" width="1024" viewBox="116 14 310 324"><g transform="matrix(1,0,0,1,256.00006103515625,256.00006103515625)" style="display: block;"><path stroke-linecap="butt" stroke-linejoin="miter" stroke-miterlimit="4" stroke="#000" fill="#8d8d8d" stroke-width="2" d=" M-94.75,-134 C-124.75,-119 -124.25,-27 -124.25,-27 C-124.25,-27 -108,-69 -108,-69 C-108,-69 -105,-51 -105.5,-58 C-106,-65 -76.08200073242188,-91.51699829101562 -76.5,-94.75 C-81.25,-131.5 -94.5,-133.5 -94.75,-134z"/><path stroke-linecap="butt" stroke-linejoin="miter" fill="#8d8d8d" stroke-miterlimit="4" stroke="#000" stroke-width="2" d=" M-33.875,-232.5 C-33.5,-232.75 -47.375,-223.125 -57.625,-206.625 C-63.499000549316406,-197.1699981689453 -65.49299621582031,-184.51300048828125 -66.1259994506836,-175.4290008544922 C-66.59700012207031,-168.66000366210938 -70.5,-165.375 -70.5,-165.375 C-70.5,-165.375 -74.125,-168.375 -89.125,-166.75 C-109.88899993896484,-164.50100708007812 -123.89600372314453,-145.45700073242188 -124,-144.625 C-124,-144.5 -107.75,-157 -89.5,-155.625 C-89.375,-155.75 -99.375,-155.875 -112.125,-141.5 C-125.85099792480469,-126.02400207519531 -131.375,-95 -131.375,-95 C-131.375,-95 -121.5,-119.625 -95.25,-134.375 C-95,-134.75 -102.625,-118.25 -100.125,-107.25 C-99.875,-107.25 -79.375,-129.25 -75.625,-138 C-75.375,-138.625 -76,-116.5 -70,-105 C-70,-105 -73.58100128173828,-123.7509994506836 -61.51499938964844,-136.88400268554688 C-61.47600173950195,-136.93600463867188 -59.98500061035156,-138.97000122070312 -59.75199890136719,-138.822998046875 C-59.750999450683594,-138.82200622558594 -59.749000549316406,-138.81900024414062 -59.749000549316406,-138.81900024414062 C-59.749000549316406,-138.81900024414062 -61.854000091552734,-136.7689971923828 -61.71500015258789,-136.72999572753906 C-56.5,-135.25 -49.65800094604492,-119.25299835205078 -49.65800094604492,-119.25299835205078 C-49.65800094604492,-119.25299835205078 -19.743000030517578,-141.04299926757812 -19.743000030517578,-141.04299926757812 C-19.743000030517578,-141.04299926757812 -22.552000045776367,-144.23500061035156 -22.552000045776367,-144.23500061035156 C-22.552000045776367,-144.23500061035156 -16,-144.12600708007812 -8.687999725341797,-109.68800354003906 C-8.5,-109.1259994506836 -7.136000156402588,-135.12100219726562 -8.13599967956543,-146.74600219726562 C-8.178999900817871,-147.24400329589844 13.75,-117.5 16.125,-98.75 C16.25,-98.25 17,-127.875 15.75,-144.125 C16,-144.5 28.625,-115 29.125,-68.75 C29.25,-68 34.625,-86.5 36,-102.5 C35.94499969482422,-102.55500030517578 46.395999908447266,-69.9540023803711 37.323001861572266,-36.72700119018555 C28.25,-3.5 6,20.5 6,20.5 C6,20.5 51.25,-8.25 61,-43.5 C61.25,-44.25 106.25,59 162.5,75 C163.03799438476562,75.15299987792969 134.25,63.5 132.75,24.25 C131.9759979248047,4.000999927520752 120.5,-31.25 120.5,-31.25 C120.5,-31.25 135.5,-10.25 141,9.75 C138.86199951171875,-7.663000106811523 135.75999450683594,-49.452999114990234 133.61300659179688,-63.88999938964844 C130.25,-86.5 116.5,-102.75 116.5,-102.75 C116.5,-102.75 141.25,-82.06300354003906 148.25,-71.125 C148.31199645996094,-71.06199645996094 139,-88.75 131.5,-106.25 C124,-123.75 113.93699645996094,-143.31199645996094 83.06199645996094,-155.5 C82.93699645996094,-155.5 107.625,-151.5 117.875,-142.43800354003906 C117.93699645996094,-142.25 98.875,-166.875 91.5,-173.375 C84.125,-179.875 71.75,-186.875 58.5,-185.125 C45.25,-183.375 41.5,-179.75 41.5,-179.75 C41.5,-179.75 51.5,-196.5 81.375,-194.25 C82,-194.125 64.1969985961914,-198.12100219726562 50.125,-202.125 C34.75,-206.5 26,-207.5 13.25,-205.25 C0.5,-203 -9.25,-190.25 -9.25,-190.25 C-9.25,-190.25 5.75,-214.375 35.125,-217.75 C35.125,-217.75 15.375,-220.5 -10.125,-214.875 C-35.53099822998047,-209.27099609375 -45.25,-193.5 -45.25,-193.5 C-45.25,-193.5 -50.375,-210.25 -33.875,-232.5z"/><path stroke-linecap="butt" stroke-linejoin="miter" stroke-miterlimit="4" stroke="#000" fill="#8d8d8d" stroke-width="2" d=" M51.875,-74.375 C51.875,-74.375 47.375,-54.75 26.375,-41.25 C26.125,-41 46.75,-55.375 35.875,-103.25"/><path stroke-linecap="butt" stroke-linejoin="miter" stroke-miterlimit="4" stroke="#000" stroke-width="2" fill="#8d8d8d" d=" M-48.875,-165.25 C-48.875,-165.25 -51.957000732421875,-184.1739959716797 -76.25,-180.875 C-86.375,-179.5 -102.875,-174.875 -102.875,-174.875 C-102.875,-174.875 -72.875,-170.125 -70.5,-165.375"/></g></svg>