<svg xmlns="http://www.w3.org/2000/svg" height="1024" width="1024" viewBox="80 -4 320 320" style="background: #1c1c1c;"><g transform="matrix(1.0042362213134766,-0.0004415550793055445,0.0012257094494998455,0.9957632422447205,251.24566650390625,260.548583984375)" style="display: block;"><path stroke-linecap="butt" stroke-linejoin="miter" stroke-miterlimit="4" fill="#d3a509" stroke="#000" stroke-width="2" d=" M10.25,-173.25 C-36.5,-176.5 -59.55099868774414,-172.27200317382812 -94.5,-129.75 C-109.5,-111.5 -112.25,-87.75 -113.5,-65.75 C-114.33599853515625,-51.03900146484375 -115,-26 -115,-26 C-115,-26 -120.25,-17.75 -119,-12 C-117.75,-6.25 -101.25,11.5 -95,18.75 C-89.91899871826172,24.643999099731445 -87.60199737548828,25.910999298095703 -87.78099822998047,20.000999450683594 C-88,12.75 -95.25,-18.75 -100.25,-37 C-105.25,-55.25 -103.94400024414062,-64.03399658203125 -100.875,-77.625 C-99.125,-85.375 -99.625,-92.75 -96.125,-95.25 C-92.625,-97.75 -78,-103.875 -41.625,-102.5 C-5.25,-101.125 23.75,-91.625 26.25,-85.125 C28.75,-78.625 30.677000045776367,-66.62200164794922 28.5,-54.25 C25.75,-38.625 21.75,-24.25 -4.125,-3.125 C-10.194000244140625,1.8300000429153442 -24.7450008392334,15.987000465393066 -30.25,24.375 C-32.875,28.375 -32.375,29.75 -26.125,29 C-19.875,28.25 20.625,21.375 43,11.25 C65.375,1.125 73.5,-6.375 73.5,-6.375 C73.5,-6.375 89.23999786376953,5.561999797821045 91.44999694824219,2.2869999408721924 C93.5,-0.75 91.25,-3.125 86.75,-5.75 C85.58699798583984,-6.427999973297119 84.25,-15.375 92,-32 C99.75,-48.625 103.75,-73.5 97,-100 C90.25,-126.5 64.30699920654297,-169.49200439453125 10.25,-173.25z"/><path stroke-linecap="butt" stroke-linejoin="miter" fill-opacity="0" stroke-miterlimit="4" stroke="#000" stroke-width="2" d=" M-97.25,8 C-97.25,8 -99.375,-11.875 -103.875,-28.75 C-106.95800018310547,-40.310001373291016 -109.75,-51.5 -107.25,-69.375 C-104.75,-87.25 -106.0530014038086,-97.6500015258789 -90,-103.25 C-68.5,-110.75 -28.25,-107.25 -28.25,-107.25"/><path stroke-linecap="butt" stroke-linejoin="miter" fill-opacity="0" stroke-miterlimit="4" stroke="#000" stroke-width="2" d=" M-19.5,-106.625 C-19.5,-106.625 5.870999813079834,-107.0510025024414 25.625,-94.375"/><path stroke-linecap="butt" stroke-linejoin="miter" fill-opacity="0" stroke-miterlimit="4" stroke="#000" stroke-width="2" d=" M32.25,-89.125 C32.25,-89.125 35.75,-86.25 36.125,-80.125 C36.5,-74 35.5,-53.375 33,-44.125 C30.5,-34.875 30.375,-26.5 13,-9.625 C-1.531000018119812,4.48799991607666 -17.5,21.25 -17.5,21.25 C-17.5,21.25 30.2189998626709,12.218999862670898 49.125,0.875"/><path stroke-linecap="butt" stroke-linejoin="miter" fill-opacity="0" stroke-miterlimit="4" stroke="#000" stroke-width="2" d=" M52.875,-1 C52.875,-1 65.625,-8.75 70.875,-11.875"/><path stroke-linecap="butt" stroke-linejoin="miter" fill-opacity="0" stroke-miterlimit="4" stroke="#00-" stroke-width="2" d=" M73.75,-13.75 C73.75,-13.75 85.875,-5.875 88.625,-4.625"/><path stroke-linecap="butt" stroke-linejoin="miter" stroke-miterlimit="4" stroke="#000" fill="#d3a509 " stroke-width="2" d=" M-2.875,-243.75 C-13.625,-243.25 -23.75,-239.25 -33.625,-233.875 C-43.5,-228.5 -54.6870002746582,-219.93800354003906 -72.875,-194.25 C-74.65899658203125,-191.72999572753906 -73.875,-192.43800354003906 -69,-188.5 C-56.29999923706055,-178.24200439453125 -46.75,-170.75 -46.3120002746582,-166.375 C-46.5,-162.06300354003906 -46.5,-149.843994140625 -46.625,-148.593994140625 C-46.75,-147.343994140625 -47.90700149536133,-145.68699645996094 -43.96900177001953,-145.375 C-40.03099822998047,-145.06300354003906 -28.062000274658203,-145.375 -28.062000274658203,-145.375 C-28.062000274658203,-145.375 -19.937999725341797,-155.56199645996094 -11.75,-162.06199645996094 C-3.562999963760376,-168.56199645996094 7.125,-172 18,-172.06199645996094 C28.875,-172.12399291992188 52.86800003051758,-162.38299560546875 58.71900177001953,-156 C58.78099822998047,-155.875 68.06300354003906,-163.5 81.375,-168 C81.625,-168 81.86299896240234,-191.90899658203125 76.75,-203.875 C70.875,-217.625 60.5,-231.125 43.375,-236.25 C26.25,-241.375 7.875,-244.25 -2.875,-243.75z"/><path stroke-linecap="butt" stroke-linejoin="miter" fill-opacity="0" stroke-miterlimit="4" stroke="#000" stroke-width="2" d=" M-73.31199645996094,-192.06199645996094 C-73.31199645996094,-192.06199645996094 -43.875,-196.125 -38.5,-191.625 C-33.125,-187.125 -24.875,-168.43899536132812 -24.875,-166.875"/><path stroke-linecap="butt" stroke-linejoin="miter" fill-opacity="0" stroke-miterlimit="4" stroke="rgb(0,0,0)" stroke-width="2" d=" M-33.125,-191.5 C-33.125,-191.5 -31.25,-196.75 -21.75,-207.375"/><path stroke-linecap="butt" stroke-linejoin="miter" fill-opacity="0" stroke-miterlimit="4" stroke="#000" stroke-width="2" d=" M-10.625,-217.125 C-10.625,-217.125 49.625,-264.625 78.125,-186"/><path stroke-linecap="butt" stroke-linejoin="miter" fill-opacity="0" stroke-miterlimit="4" stroke="#000" stroke-width="2" d=" M33.5629997253418,-238.56199645996094 C33.5629997253418,-238.56199645996094 14.312000274658203,-240.625 2.25,-233.125 C-9.812000274658203,-225.625 -27.625999450683594,-213 -38.4379997253418,-190.875"/><path stroke-linecap="butt" stroke-linejoin="miter" fill-opacity="0" stroke-miterlimit="4" stroke="#000" stroke-width="2" d=" M-45.96900177001953,-166.25 C-45.96900177001953,-166.25 -24.9689998626709,-166.781005859375 -24.9689998626709,-166.781005859375 C-24.9689998626709,-166.781005859375 -10.00100040435791,-180.25 6.436999797821045,-184.625 C22.875,-189 46.90599822998047,-188.093994140625 54.90599822998047,-158.843994140625"/><path stroke-linecap="butt" stroke-linejoin="miter" stroke-miterlimit="4" stroke="#000" stroke-width="2" d=" M-26.5,-163.68800354003906 C-26.5,-163.68800354003906 -27.937000274658203,-154.125 -28.125,-145.5"/></g></svg>