<svg xmlns="http://www.w3.org/2000/svg" viewBox="136 40 248 238" width="1024" height="1024" style="background:#1c1c1c;"><g transform="matrix(1,0,0,1,256.00006103515625,256.00006103515625)" style="display: block;"><path stroke-linecap="butt" stroke-linejoin="miter" fill="#8d8d8d" stroke-miterlimit="4" stroke="#000" stroke-width="2" d=" M9.25,-206.75 C9.25,-206.75 18.75,-196.875 15.5,-197.125 C12.25,-197.375 -6.875,-206 -22.25,-204.875 C-22.25,-204.75 -13.305000305175781,-199.28199768066406 -15.625,-197.625 C-15.875,-197.25 -45.25,-197.875 -57.75,-195.875 C-58,-195.5 -40.375,-189 -44.375,-188.5 C-48.375,-188 -63.625,-189.75 -70.125,-189 C-76.625,-188.25 -88.375,-184.625 -88.375,-184.625 C-88.375,-184.625 -57.5,-180.375 -69.75,-177.625 C-82,-174.875 -97.25,-170.5 -109,-155.5 C-109.25,-155.625 -97.87000274658203,-162.4250030517578 -89.875,-161.625 C-84.875,-161.125 -81.8740005493164,-162.77099609375 -90.25,-154.5 C-110.25,-134.75 -109.75,-119 -109.75,-119 C-109.75,-119 -95.5,-142.75 -58,-134.75 C-56.90700149536133,-134.51699829101562 -55.263999938964844,-115.74700164794922 -55.263999938964844,-115.74700164794922 C-55.263999938964844,-115.74700164794922 -26.72800064086914,-148.98300170898438 9.5,-135.75 C51.25,-120.5 52.00199890136719,-84.25599670410156 48.50199890136719,-63.00600051879883 C45.00199890136719,-41.75600051879883 33.25400161743164,-28.756000518798828 27.253999710083008,-20.256000518798828 C21.253999710083008,-11.755999565124512 22.75,-4.5 25.75,4 C28.75,12.5 30.125,13.062000274658203 30.125,13.062000274658203 C30.125,13.062000274658203 42.5,1.625 55.9379997253418,6.625 C69.3759994506836,11.625 72.43800354003906,10.25 72.43800354003906,10.25 C72.43800354003906,10.25 68.87300109863281,6.763999938964844 66.71800231933594,4.288000106811523 C64.56300354003906,1.812000036239624 63.71900177001953,-2.8359999656677246 69.25,1.437999963760376 C78.875,8.87600040435791 87.375,15.187999725341797 101.625,5.25 C102.03800201416016,4.961999893188477 88.81199645996094,2.562999963760376 84.25,-3.062000036239624 C84.06199645996094,-3.062000036239624 102.75,1 112.25,-6.438000202178955 C112.375,-6.313000202178955 97.75,-8.12399959564209 94.375,-20.062000274658203 C94.43699645996094,-20.187000274658203 98.93699645996094,-16.375 111.125,-17.75 C111.125,-17.75 103.375,-28.75 103.75,-40.4379997253418 C104,-40.4379997253418 108.5,-33.374000549316406 122.5,-34.5620002746582 C122.56199645996094,-34.624000549316406 106.625,-43.75 104.875,-74.875 C104.875,-74.875 104.25,-64.125 121.125,-59.375 C121,-59.125 113.75,-66.875 111.625,-88.875 C109.5,-110.875 104.125,-115.25 101.125,-121.375 C101.125,-121.75 106.25,-116 113.75,-113.875 C113.85399627685547,-113.927001953125 109.0989990234375,-120.21600341796875 106.67500305175781,-125.73300170898438 C104.2509994506836,-131.25 94.43499755859375,-146.1959991455078 84.625,-149.875 C84.375,-149.75 85.875,-170.25 69.375,-182.125 C69.125,-181.875 70.76899719238281,-175.45199584960938 69.75,-171.375 C69.75,-171.25 60.25,-189 44.75,-197.125 C44.75,-197.25 45.75,-190.5 44.875,-189.875 C44,-189.25 26.375,-201.5 19.125,-204 C11.875,-206.5 9.25,-206.75 9.25,-206.75z"/></g></svg>