<svg xmlns="http://www.w3.org/2000/svg" viewBox="136 58 234 212" width="1024" height="1024" style="background: #1c1c1c;"><g transform="matrix(1,0,0,1,256.0146179199219,248.99864196777344)" style="display: block;"><path stroke-linecap="butt" stroke-linejoin="miter" stroke-miterlimit="4" stroke="#000" fill="#8d8d8d" stroke-width="2" d=" M-36,-173.125 C-54.75,-171.625 -71.3740005493164,-166.75100708007812 -93.625,-144.5 C-111.5,-126.625 -111.25,-108.5 -111,-108.875 C-100.625,-110.5 -83.625,-111.5 -82.75,-111.625 C-81.875,-111.75 -81.625,-127.875 -49.25,-153.5 C-49,-153.375 -66.625,-131.5 -67.75,-112.125 C-67.5,-111.5 -54,-113.75 -24.125,-112 C-24.125,-111.875 -19.875,-128.25 -4.5,-147.75 C-4.5,-147.75 -13,-126.625 -12.25,-110.875 C-12.225000381469727,-110.36000061035156 4.25,-109.625 38,-102.125 C38.375,-101.875 42.125,-117 42.5,-124.125 C42.625,-123.375 62.5,-41.625 27.5,-1.375 C27.375,-0.875 35.893001556396484,0.9660000205039978 38.625,0.625 C38.875,0.5 50.125,-14.875 58.875,-36.5 C58.875,-36.625 56,-10.375 47.125,2.25 C47.25,2.5 55.625,5.375 62.625,6.625 C62.75,6.625 75,-8.75 79.25,-27.125 C79.375,-27 79.25,-0.875 71.625,8.625 C71,9.125 80.875,11.375 94.5,12.25 C95.01399993896484,12.282999992370605 106.25,0.625 106.25,-33.5 C106.25,-67.625 104.40499877929688,-85.33799743652344 99.375,-104.125 C93.25,-127 72,-182.25 -10,-169.75 C-10.75,-169.5 -17.25,-174.625 -36,-173.125z"/></g></svg>