<svg xmlns="http://www.w3.org/2000/svg" viewBox="28 -46 362 362" width="1024" height="1024" style="background: #1c1c1c;"><g transform="matrix(0.9954927563667297,-0.2092713564634323,0.21522065997123718,0.958939790725708,233.95217895507812,265.9442443847656)" style="display: block;"><path stroke-linecap="butt" stroke-linejoin="miter" stroke-miterlimit="4" stroke="#000" fill="#8d8d8d" stroke-width="2" d=" M-111.5,-171.75 C-174.55299377441406,-159.1840057373047 -156.9429931640625,-133.62899780273438 -138,-121 C-109.5,-102 -83,-94 -13.5,-74.5 C41.26100158691406,-59.1349983215332 55.75,-55.75 94,-50.5 C161.43299865722656,-41.244998931884766 154.75,-73 141.25,-88 C125.4469985961914,-105.55899810791016 87.75,-127.25 56.75,-141.75 C31.07699966430664,-153.75799560546875 -41.25,-185.75 -111.5,-171.75z"/><path stroke-linecap="butt" stroke-linejoin="miter" stroke-miterlimit="4" stroke="#000" fill="#8d8d8d" stroke-width="2" d=" M-39.5,-231.75 C-63.75,-230.5 -86.25,-166.5 -86.25,-166.5 C-86.25,-166.5 88.88099670410156,-109.39900207519531 89.25,-116.5 C93,-188.75 83.5,-194.5 70,-204.5 C41.229000091552734,-225.81199645996094 -15.25,-233 -39.5,-231.75z"/><path stroke-linecap="butt" stroke-linejoin="miter" stroke-miterlimit="4" stroke="#000" stroke-width="0" d=" M-72,-187 C-85.125,-186.75 -86.375,-172.125 -86.375,-172.125 C-86.375,-172.125 30.125,-136.125 62.875,-127.25 C95.625,-118.375 93.25,-116.625 92.625,-127.875 C92,-139.125 88.74800109863281,-138.6479949951172 69,-149 C-5.875,-188.25 -52.75199890136719,-187.36700439453125 -72,-187z"/><path stroke-linecap="butt" stroke-linejoin="miter" stroke-width="0" stroke-miterlimit="4" stroke="#000" fill="#8d8d8d" d=" M-111.75,-170.5 C-135.16200256347656,-166.0279998779297 -123.75,-130.75 -123.75,-130.75 C-123.75,-130.75 -3.25,-158.25 114.5,-75.25 C139.9080047607422,-57.34000015258789 131.20199584960938,-99.48500061035156 112.5,-110.5 C53.5,-145.25 -22.75,-187.5 -111.75,-170.5z"/><path stroke-linecap="butt" stroke-linejoin="miter" fill-opacity="0" stroke-miterlimit="4" stroke="#000" stroke-width="2" d=" M-123.75,-130.5 C-123.75,-130.5 -1.75,-156.25 114,-75"/></g></svg>