<svg xmlns="http://www.w3.org/2000/svg" viewBox="98 0 262 262" width="1024" height="1024" style="background: #1c1c1c;"><g transform="matrix(1.002333164215088,-0.13645175099372864,0.14001496136188507,0.9784663915634155,240.51022338867188,266.7869873046875)" style="display: block;"><path stroke-linecap="butt" stroke-linejoin="miter" fill="#0f0f0f" stroke-miterlimit="4" stroke="#000" stroke-width="2" d=" M14.25,-102.25 C-106.21199798583984,-125.0739974975586 -180.01100158691406,-100.3499984741211 0,-69.75 C126.86799621582031,-48.183998107910156 156.75,-75.25 14.25,-102.25z"/><path stroke-linecap="butt" stroke-linejoin="miter" stroke-miterlimit="4" fill="#8d8d8d" stroke="#000" stroke-width="2" d=" M14.25,-214.25 C-32.25,-220.25 -77.75,-203.25 -102,-125.75 C-103.65299987792969,-120.46800231933594 108.12899780273438,-93.44300079345703 108.25,-98.25 C110.25,-177.5 68.5,-207.25 14.25,-214.25z"/><path stroke-linecap="butt" stroke-linejoin="miter" fill="#8d8d8d" stroke-miterlimit="4" stroke="#000" stroke-width="2" d=" M-100.25,-136.5 C-110,-134.5 -107.5,-102 -107.5,-102 C-107.5,-102 -75.5,-119 29,-94.75 C104.31400299072266,-77.27300262451172 106.25,-66 106.75,-66 C113.75,-74.75 114.5,-90.5 114.5,-94.75 C114.5,-99 87.07099914550781,-123.59300231933594 11.75,-135.75 C-59.5,-147.25 -90.5,-138.5 -100.25,-136.5z"/></g></svg>