<svg xmlns="http://www.w3.org/2000/svg" viewBox="120 35 302 262" width="1024" height="1024" style="background: #1c1c1c;"><g transform="matrix(1.0055062770843506,-0.07329712063074112,0.07534099370241165,0.9889628291130066,244.79241943359375,266.40765380859375)" style="display: block;"><path stroke-linecap="butt" stroke-linejoin="miter" fill="#8d8d8d" stroke-miterlimit="4" stroke="#000" stroke-width="2" d=" M149.25,-156.75 C149.25,-156.75 147.76100158691406,-130.9250030517578 122,-121.75 C103.75,-115.25 105.25,-93.75 105.25,-93.75 C105.25,-93.75 138.5,-91 149.75,-108.5 C161.56100463867188,-126.87300109863281 149.25,-156.75 149.25,-156.75z"/><path stroke-linecap="butt" stroke-linejoin="miter" fill="#8d8d8d" stroke-miterlimit="4" stroke="#000" stroke-width="2" d=" M104.5,-90.75 C104.5,-90.75 105,-54.5 117.25,-39.5 C129.5,-24.5 163,-16 163,-16 C163,-16 145.5,-29.5 141,-51.75 C136.43699645996094,-74.31099700927734 104.5,-90.75 104.5,-90.75z"/><path stroke-linecap="butt" stroke-linejoin="miter" fill="#8d8d8d" stroke-miterlimit="4" stroke="#000" stroke-width="2" d=" M94.31199645996094,-97.875 C89.53600311279297,-84.45700073242188 110.18699645996094,-79.31300354003906 112.375,-92.68800354003906 C114.56300354003906,-106.06300354003906 98.25,-108.93699645996094 94.31199645996094,-97.875z"/></g><g transform="matrix(1.0055062770843506,-0.07329712063074112,0.07534099370241165,0.9889628291130066,245.2423095703125,266.34344482421875)" style="display: block;"><path stroke-linecap="butt" stroke-linejoin="miter" fill="#8d8d8d" stroke-miterlimit="4" stroke="#000" stroke-width="2" d=" M-100.25,-119 C-100.25,-119 -61.36199951171875,-121.48300170898438 -27.483999252319336,-117.11699676513672 C35.5,-109 99.20500183105469,-91.06999969482422 99.5,-92.75 C101.81199645996094,-105.93800354003906 89.08000183105469,-156.64300537109375 56.698001861572266,-172.17599487304688 C18.5,-190.5 -15.75,-186.75 -44.02299880981445,-178.0850067138672 C-93.58200073242188,-162.89599609375 -100.25,-119 -100.25,-119z"/></g></svg>