<svg xmlns="http://www.w3.org/2000/svg" viewBox="115 38 262 262" width="1024" height="1024" style="background: #1c1c1c;"><g transform="matrix(1.0042362213134766,-0.0004415550793055445,0.0012257094494998455,0.9957632422447205,249.47161865234375,266.0635681152344)" style="display: block;"><path stroke-linecap="butt" stroke-linejoin="miter" fill="#8d8d8d" stroke-miterlimit="4" stroke="#000" stroke-width="2" d=" M-61.5,-183 C-102.14099884033203,-162.49600219726562 -115,-112.75 -115,-112.75 C-115,-112.75 0.3499999940395355,-114.15899658203125 23.75,-111.5 C45.75,-109 46,-101.25 45.25,-76.5 C44.856998443603516,-63.53200149536133 35.25,-21.5 43,-12.5 C50.75,-3.5 68.5,4 85,-11.75 C101.5,-27.5 112.5,-52 112,-75.25 C111.5,-98.5 112.83499908447266,-149.38900756835938 64,-179.25 C24.75,-203.25 -33.75,-197 -61.5,-183z"/><path stroke-linecap="butt" stroke-linejoin="miter" fill="#8d8d8d" stroke-miterlimit="4" stroke="#000" stroke-width="3" d=" M105.75,-72.25 C102.98100280761719,-110.78800201416016 66.75,-113 65.75,-67.5 C64.70600128173828,-20.006000518798828 108.75,-30.5 105.75,-72.25z"/></g></svg>