<svg xmlns="http://www.w3.org/2000/svg" viewBox="97 35 262 262" width="1024" height="1024" style="background: #1c1c1c;"><g transform="matrix(1.002333164215088,-0.13645175099372864,0.14001496136188507,0.9784663915634155,240.51019287109375,266.78662109375)" style="display: block;"><path stroke-linecap="butt" stroke-linejoin="miter" fill="#8d8d8d" stroke-miterlimit="4" stroke="#000" stroke-width="2" d=" M-107.53099822998047,-112.71900177001953 C-111.875,-95.125 -110.25,-61.25 -103,-45.25 C-95.75,-29.25 -70.5,-35.5 -73.75,-52.75 C-91,-71 -92,-90.625 -100.625,-108.125"/><path stroke-linecap="butt" stroke-linejoin="miter" fill="#8d8d8d" stroke-miterlimit="4" stroke="#000" stroke-width="2" d=" M-109,-103.875 C-108.25,-111.625 -106,-118.375 -100.75,-131 C-95.5,-143.625 -92.125,-147.875 -92.125,-147.875 C-92.125,-147.875 -94.125,-153 -93.125,-160.625 C-92.125,-168.25 -82.25,-210.875 -81.25,-215.375 C-80.25,-219.875 -77.71399688720703,-219.53700256347656 -71.875,-217.125 C-66.125,-214.75 -45.375,-206.625 -31,-189.75 C-30.875,-189.625 -2.875,-196.75 24,-192 C45.84700012207031,-188.13900756835938 67.375,-174.875 90.125,-143.375 C112.875,-111.875 107.4528579711914,-74.67371368408203 104.875,-61.625 C102.53585815429688,-49.38264465332031 93.17343139648438,-29.012571334838867 72.38264465332031,-11.095999717712402 C52.783355712890625,5.8085713386535645 41.25764465332031,11.529000282287598 34.88264465332031,7.4039998054504395 C28.50764274597168,3.2790000438690186 25.50764274597168,-2.3459999561309814 26.13264274597168,-10.720999717712402 C26.75764274597168,-19.09600067138672 31.030214309692383,-27.500070571899414 35.33078384399414,-37.603214263916016 C39.270713806152344,-46.90064239501953 43.02199935913086,-62.44721603393555 41.61764144897461,-73.51042938232422 C39.62821578979492,-88.99456787109375 33.75,-111.75 21.75,-125.625 C12.041999816894531,-136.85000610351562 -12.538000106811523,-166.2989959716797 -52,-153.5 C-70.5,-147.5 -82.5,-136.375 -89.5,-127.75 C-93.67500305175781,-122.60600280761719 -98.2536392211914,-113.54257202148438 -99.1286392211914,-105.29257202148438"/><path stroke-linecap="butt" stroke-linejoin="miter" fill="#8d8d8d" stroke-miterlimit="4" stroke="#000" stroke-width="2" d=" M24.875,-177.625 C46,-189.5 64.875,-198 72.875,-200.375 C80.875,-202.75 84.10700225830078,-204.22900390625 86.5,-195.375 C89,-186.125 94.375,-145.125 85.25,-114"/><path stroke-linecap="butt" stroke-linejoin="miter" fill="#f5c2cd " stroke-miterlimit="4" stroke="#000" stroke-width="2" d=" M65.125,-180.5 C56.832000732421875,-175.16900634765625 49.0620002746582,-171.35899353027344 39.5,-167.375 C38,-166.75 38,-165.25 39.75,-163.5 C41.5,-161.75 54.5,-148.5 57.5,-144 C60.5,-139.5 61.125,-142.375 62,-145.25 C62.875,-148.125 68.5,-171 68.875,-177.125 C69.25,-183.25 66.875,-181.625 65.125,-180.5z"/><path stroke-linecap="butt" stroke-linejoin="miter" fill="#f5c2cd " stroke-miterlimit="4" stroke="#000" stroke-width="2" d=" M-71.25,-196.875 C-73.25,-200.75 -73.75,-197.875 -74.25,-195.25 C-74.75,-192.625 -79.8010025024414,-170.0019989013672 -79.875,-166.875 C-80,-161.625 -79.75,-162.25 -76.875,-165.625 C-75.44100189208984,-167.30799865722656 -65.5,-176.125 -61.125,-177.75 C-56.75,-179.375 -58.125,-179.75 -59.5,-181.25 C-65.89099884033203,-188.2220001220703 -69.25,-193 -71.25,-196.875z"/><path stroke-linecap="butt" stroke-linejoin="miter" stroke-miterlimit="4" stroke="#000" stroke-width="2" d=" M-92.375,-147.625 C-86,-156.875 -81.47699737548828,-160.18699645996094 -78.25,-163.875"/></g></svg>