<svg xmlns="http://www.w3.org/2000/svg" viewBox="180 34 142 56" width="1024" height="1024" style="background: #1c1c1c"><g transform="matrix(1,0,0,1,251.1971893310547,58.70416259765625)" style="display: block;"><path fill="#8d8d8d" d=" M63.85300064086914,41.53200149536133 C63.85300064086914,41.53200149536133 73.16999816894531,-34.042999267578125 -0.5950000286102295,-41.53200149536133 C-43.125999450683594,-41.56100082397461 -64.23200225830078,-29.617000579833984 -64.23200225830078,-29.617000579833984 C-50.65800094604492,-4.966000080108643 -44.143001556396484,18.275999069213867 -41.67900085449219,41.53200149536133 C-41.67900085449219,41.53200149536133 63.85300064086914,41.53200149536133 63.85300064086914,41.53200149536133z"/></g><g transform="matrix(1,0,0,1,-4.7578125,7.151153564453125)" style="display: block;"><g transform="matrix(1,0,0,1,255.9550018310547,51.553001403808594)"><path d=" M63.85300064086914,41.53200149536133 C63.85300064086914,41.53200149536133 73.16999816894531,-34.042999267578125 -0.5950000286102295,-41.53200149536133 C-43.125999450683594,-41.56100082397461 -64.23200225830078,-29.617000579833984 -64.23200225830078,-29.617000579833984 C-50.65800094604492,-4.966000080108643 -44.143001556396484,18.275999069213867 -41.67900085449219,41.53200149536133 C-41.67900085449219,41.53200149536133 -12.593000411987305,41.53200149536133 -12.593000411987305,41.53200149536133 C-12.593000411987305,41.53200149536133 -1.3609999418258667,26.974000930786133 21.97599983215332,24.972000122070312" stroke-width="2" stroke="#000" fill-opacity="0" stroke-linejoin="round" stroke-linecap="round"/></g><g transform="matrix(1,0,0,1,205.38299560546875,27.722999572753906)"><path stroke-linecap="round" stroke-linejoin="round" fill-opacity="0" stroke="#000" stroke-width="2" d=" M-13.65999984741211,-5.7870001792907715 C-13.65999984741211,-5.7870001792907715 5.318999767303467,-9.362000465393066 5.318999767303467,-9.362000465393066 C5.318999767303467,-9.362000465393066 9.914999961853027,5.447000026702881 9.914999961853027,5.447000026702881 C9.914999961853027,5.447000026702881 10.765999794006348,-8.680999755859375 10.765999794006348,-8.680999755859375 C10.765999794006348,-8.680999755859375 13.65999984741211,9.362000465393066 13.65999984741211,9.362000465393066"/></g><g transform="matrix(1,0,0,1,254.02200317382812,26.65999984741211)"><path stroke-linecap="round" stroke-linejoin="round" fill-opacity="0" stroke="#000" stroke-width="2" d=" M32.7239990234375,-7.335000038146973 C12.852999687194824,-16.753999710083008 -3.319999933242798,-8.298999786376953 -3.319999933242798,-8.298999786376953 C-3.319999933242798,-8.298999786376953 -28.680999755859375,-10.85200023651123 -28.680999755859375,-10.85200023651123 C-28.680999755859375,-10.85200023651123 -30.724000930786133,11.78600025177002 -30.724000930786133,11.78600025177002 C-30.724000930786133,11.78600025177002 -32.7239990234375,-6.936999797821045 -32.7239990234375,-6.936999797821045"/></g><g transform="matrix(1,0,0,1,210.36199951171875,59.29800033569336)"><path fill="#000" d=" M-7.14900016784668,-25.957000732421875 C-7.14900016784668,-25.957000732421875 4.255000114440918,-3.319999933242798 7.14900016784668,25.957000732421875"/></g><g transform="matrix(1,0,0,1,248.9669952392578,57.194000244140625)"><path fill="#000" d=" M-5.605000019073486,34.35900115966797 C-5.603000164031982,35.89099884033203 -8.817000389099121,-0.10899999737739563 1.906000018119812,-33.555999755859375 C1.906000018119812,-33.555999755859375 -0.47699999809265137,-14.321000099182129 -0.47699999809265137,-14.321000099182129 C-0.47699999809265137,-14.321000099182129 4.416999816894531,-30.83300018310547 6.054999828338623,-34.40700149536133 C6.054999828338623,-34.40700149536133 -5.625999927520752,13.338000297546387 -5.605000019073486,34.35900115966797z"/></g><g transform="matrix(1,0,0,1,253.59800720214844,63.553001403808594)"><path fill="#000" d=" M-2.384999990463257,19.829999923706055 C-2.384999990463257,19.829999923706055 -2.937999963760376,-0.5109999775886536 2.4019999504089355,-19.829999923706055"/></g><g transform="matrix(1,0,0,1,274.61700439453125,45.42599868774414)"><path fill="#000" d=" M-6.552999973297119,22.63800048828125 C-6.552999973297119,22.63800048828125 -3.4040000438690186,-4.425000190734863 6.552999973297119,-22.63800048828125"/></g><g transform="matrix(1,0,0,1,281.0849914550781,58.617000579833984)"><path fill="#000" d=" M-3.6600000858306885,14.043000221252441 C-3.6600000858306885,14.043000221252441 -0.17000000178813934,-5.191999912261963 3.6600000858306885,-14.043000221252441"/></g><g transform="matrix(1,0,0,1,284.6600036621094,57.16999816894531)"><path fill="#000" d=" M-5.5320000648498535,14.637999534606934 C-5.361999988555908,14.211999893188477 0.6809999942779541,-6.638000011444092 5.5320000648498535,-14.637999534606934"/></g><g transform="matrix(1,0,0,1,296.2340087890625,52.57400131225586)"><path fill="#000" d=" M-6.043000221252441,15.48900032043457 C-6.043000221252441,15.48900032043457 -2.382999897003174,-2.9779999256134033 6.043000221252441,-15.48900032043457"/></g><g transform="matrix(1,0,0,1,307.8940124511719,50.191001892089844)"><path fill="#000" d=" M0.17000000178813934,-4.765999794006348 C0.17000000178813934,-4.765999794006348 -2.382999897003174,4.765999794006348 -2.382999897003174,4.765999794006348 C-2.382999897003174,4.765999794006348 2.382999897003174,-3.2339999675750732 2.382999897003174,-3.2339999675750732 C2.382999897003174,-3.2339999675750732 0,-0.9789999723434448 0,-0.9789999723434448 C0,-0.9789999723434448 0.17000000178813934,-4.765999794006348 0.17000000178813934,-4.765999794006348z"/></g><g transform="matrix(1,0,0,1,311.1910095214844,69.06400299072266)"><path fill="#000" d=" M-3.2980000972747803,4.14900016784668 C-3.2980000972747803,4.14900016784668 1.9579999446868896,-3.510999917984009 3.2980000972747803,-4.14900016784668 C3.2980000972747803,-4.14900016784668 1.1059999465942383,-0.382999986410141 0,1.2130000591278076 C-1.1059999465942383,2.809000015258789 -3.2980000972747803,4.14900016784668 -3.2980000972747803,4.14900016784668z"/></g></g></svg>